<mxfile host="app.diagrams.net" modified="2024-02-20T09:56:36.367Z" agent="Mozilla/5.0 (Windows NT 10.0; Win64; x64) AppleWebKit/537.36 (KHTML, like Gecko) Chrome/121.0.0.0 Safari/537.36 Edg/121.0.0.0" etag="5fYcAcWhDZLmRa8iowkK" version="22.1.20" type="github">
  <diagram name="第 1 页" id="k2K2BacnFWVTWWxh2E1V">
    <mxGraphModel dx="2622" dy="1075" grid="1" gridSize="10" guides="1" tooltips="1" connect="1" arrows="1" fold="1" page="1" pageScale="1" pageWidth="827" pageHeight="1169" math="0" shadow="0">
      <root>
        <mxCell id="0" />
        <mxCell id="1" parent="0" />
        <mxCell id="hpwQwDmwqJIpBTNwLYX5-7" value="" style="edgeStyle=orthogonalEdgeStyle;rounded=0;orthogonalLoop=1;jettySize=auto;html=1;" edge="1" parent="1" source="hpwQwDmwqJIpBTNwLYX5-1" target="hpwQwDmwqJIpBTNwLYX5-6">
          <mxGeometry relative="1" as="geometry" />
        </mxCell>
        <mxCell id="hpwQwDmwqJIpBTNwLYX5-1" value="创建新index" style="rounded=1;whiteSpace=wrap;html=1;fillColor=#d5e8d4;strokeColor=#82b366;" vertex="1" parent="1">
          <mxGeometry x="-270" y="360" width="130" height="60" as="geometry" />
        </mxCell>
        <mxCell id="hpwQwDmwqJIpBTNwLYX5-9" value="" style="edgeStyle=orthogonalEdgeStyle;rounded=0;orthogonalLoop=1;jettySize=auto;html=1;" edge="1" parent="1" source="hpwQwDmwqJIpBTNwLYX5-6" target="hpwQwDmwqJIpBTNwLYX5-8">
          <mxGeometry relative="1" as="geometry" />
        </mxCell>
        <mxCell id="hpwQwDmwqJIpBTNwLYX5-6" value="执行reIndex" style="whiteSpace=wrap;html=1;rounded=1;fillColor=#ffe6cc;strokeColor=#d79b00;" vertex="1" parent="1">
          <mxGeometry x="-265" y="497" width="120" height="60" as="geometry" />
        </mxCell>
        <mxCell id="hpwQwDmwqJIpBTNwLYX5-48" style="edgeStyle=orthogonalEdgeStyle;rounded=0;orthogonalLoop=1;jettySize=auto;html=1;exitX=0.5;exitY=1;exitDx=0;exitDy=0;entryX=0.5;entryY=0;entryDx=0;entryDy=0;" edge="1" parent="1" source="hpwQwDmwqJIpBTNwLYX5-8" target="hpwQwDmwqJIpBTNwLYX5-41">
          <mxGeometry relative="1" as="geometry" />
        </mxCell>
        <mxCell id="hpwQwDmwqJIpBTNwLYX5-8" value="别名绑定关联调整" style="whiteSpace=wrap;html=1;rounded=1;fillColor=#dae8fc;strokeColor=#6c8ebf;" vertex="1" parent="1">
          <mxGeometry x="-265" y="633" width="120" height="60" as="geometry" />
        </mxCell>
        <mxCell id="hpwQwDmwqJIpBTNwLYX5-12" value="新index名称：旧index名称_new&lt;br&gt;注意：新index中需要将错误的字段类型纠正" style="rounded=0;whiteSpace=wrap;html=1;fillColor=#d5e8d4;strokeColor=#82b366;" vertex="1" parent="1">
          <mxGeometry x="-110" y="360" width="340" height="60" as="geometry" />
        </mxCell>
        <mxCell id="hpwQwDmwqJIpBTNwLYX5-13" value="执行reIndex，source=旧index，target=新index&lt;br&gt;ES服务器接收请求后，会以scroll从source中获取数据写入target中，完成数据的写入重建" style="rounded=0;whiteSpace=wrap;html=1;fillColor=#ffe6cc;strokeColor=#d79b00;" vertex="1" parent="1">
          <mxGeometry x="-110" y="497" width="340" height="60" as="geometry" />
        </mxCell>
        <mxCell id="hpwQwDmwqJIpBTNwLYX5-16" value="重要步骤" style="shape=callout;whiteSpace=wrap;html=1;perimeter=calloutPerimeter;position2=0.8;fillColor=#ffe6cc;strokeColor=#d79b00;fontStyle=1" vertex="1" parent="1">
          <mxGeometry x="-330" y="440" width="100" height="70" as="geometry" />
        </mxCell>
        <mxCell id="hpwQwDmwqJIpBTNwLYX5-37" style="edgeStyle=orthogonalEdgeStyle;rounded=0;orthogonalLoop=1;jettySize=auto;html=1;exitX=0.5;exitY=1;exitDx=0;exitDy=0;" edge="1" parent="1" source="hpwQwDmwqJIpBTNwLYX5-35" target="hpwQwDmwqJIpBTNwLYX5-1">
          <mxGeometry relative="1" as="geometry" />
        </mxCell>
        <mxCell id="hpwQwDmwqJIpBTNwLYX5-35" value="将旧index和别名alisa建立绑定关联" style="rounded=1;whiteSpace=wrap;html=1;fillColor=#e1d5e7;strokeColor=#9673a6;" vertex="1" parent="1">
          <mxGeometry x="-270" y="230" width="130" height="60" as="geometry" />
        </mxCell>
        <mxCell id="hpwQwDmwqJIpBTNwLYX5-38" value="注意：建立关联后，代码中 es index名称全部需要修改成别名alisa（需要提前发版）" style="rounded=0;whiteSpace=wrap;html=1;fillColor=#e1d5e7;strokeColor=#9673a6;" vertex="1" parent="1">
          <mxGeometry x="-110" y="230" width="340" height="60" as="geometry" />
        </mxCell>
        <mxCell id="hpwQwDmwqJIpBTNwLYX5-44" value="" style="edgeStyle=orthogonalEdgeStyle;rounded=0;orthogonalLoop=1;jettySize=auto;html=1;" edge="1" parent="1" source="hpwQwDmwqJIpBTNwLYX5-41" target="hpwQwDmwqJIpBTNwLYX5-43">
          <mxGeometry relative="1" as="geometry" />
        </mxCell>
        <mxCell id="hpwQwDmwqJIpBTNwLYX5-45" value="失败" style="edgeLabel;html=1;align=center;verticalAlign=middle;resizable=0;points=[];" vertex="1" connectable="0" parent="hpwQwDmwqJIpBTNwLYX5-44">
          <mxGeometry x="-0.4713" relative="1" as="geometry">
            <mxPoint y="3" as="offset" />
          </mxGeometry>
        </mxCell>
        <mxCell id="hpwQwDmwqJIpBTNwLYX5-49" style="edgeStyle=orthogonalEdgeStyle;rounded=0;orthogonalLoop=1;jettySize=auto;html=1;exitX=0;exitY=0.5;exitDx=0;exitDy=0;entryX=0;entryY=0.5;entryDx=0;entryDy=0;" edge="1" parent="1" source="hpwQwDmwqJIpBTNwLYX5-41" target="hpwQwDmwqJIpBTNwLYX5-50">
          <mxGeometry relative="1" as="geometry">
            <mxPoint x="-360" y="860" as="targetPoint" />
            <Array as="points">
              <mxPoint x="-320" y="760" />
              <mxPoint x="-320" y="1020" />
              <mxPoint x="-265" y="1020" />
            </Array>
          </mxGeometry>
        </mxCell>
        <mxCell id="hpwQwDmwqJIpBTNwLYX5-51" value="成功" style="edgeLabel;html=1;align=center;verticalAlign=middle;resizable=0;points=[];" vertex="1" connectable="0" parent="hpwQwDmwqJIpBTNwLYX5-49">
          <mxGeometry x="0.0675" relative="1" as="geometry">
            <mxPoint as="offset" />
          </mxGeometry>
        </mxCell>
        <mxCell id="hpwQwDmwqJIpBTNwLYX5-41" value="验收" style="rhombus;whiteSpace=wrap;html=1;fillColor=#fff2cc;strokeColor=#d6b656;rounded=1;" vertex="1" parent="1">
          <mxGeometry x="-245" y="720" width="80" height="80" as="geometry" />
        </mxCell>
        <mxCell id="hpwQwDmwqJIpBTNwLYX5-43" value="回滚" style="whiteSpace=wrap;html=1;fillColor=#f8cecc;strokeColor=#b85450;rounded=1;" vertex="1" parent="1">
          <mxGeometry x="-265" y="866.67" width="120" height="60" as="geometry" />
        </mxCell>
        <mxCell id="hpwQwDmwqJIpBTNwLYX5-46" value="1：将新index和别名alisa取消绑定关联&lt;br style=&quot;border-color: var(--border-color);&quot;&gt;2：将旧index和别名alisa建立绑定关联" style="rounded=0;whiteSpace=wrap;html=1;fillColor=#f8cecc;strokeColor=#b85450;" vertex="1" parent="1">
          <mxGeometry x="-92.5" y="866.67" width="340" height="60" as="geometry" />
        </mxCell>
        <mxCell id="hpwQwDmwqJIpBTNwLYX5-47" value="1：将旧index和别名alisa取消绑定关联&lt;br&gt;2：将新index和别名alisa建立绑定关联" style="rounded=0;whiteSpace=wrap;html=1;fillColor=#dae8fc;strokeColor=#6c8ebf;" vertex="1" parent="1">
          <mxGeometry x="-110" y="633" width="340" height="60" as="geometry" />
        </mxCell>
        <mxCell id="hpwQwDmwqJIpBTNwLYX5-50" value="收尾" style="whiteSpace=wrap;html=1;fillColor=#d5e8d4;strokeColor=#82b366;rounded=1;" vertex="1" parent="1">
          <mxGeometry x="-265" y="976.67" width="120" height="60" as="geometry" />
        </mxCell>
        <mxCell id="hpwQwDmwqJIpBTNwLYX5-52" value="将旧index进行下线，让出ES内存" style="rounded=0;whiteSpace=wrap;html=1;fillColor=#d5e8d4;strokeColor=#82b366;" vertex="1" parent="1">
          <mxGeometry x="-85" y="976.67" width="340" height="60" as="geometry" />
        </mxCell>
        <mxCell id="hpwQwDmwqJIpBTNwLYX5-53" style="edgeStyle=orthogonalEdgeStyle;rounded=0;orthogonalLoop=1;jettySize=auto;html=1;exitX=0.5;exitY=0;exitDx=0;exitDy=0;entryX=0.5;entryY=1;entryDx=0;entryDy=0;" edge="1" parent="1" source="hpwQwDmwqJIpBTNwLYX5-54" target="hpwQwDmwqJIpBTNwLYX5-56">
          <mxGeometry relative="1" as="geometry" />
        </mxCell>
        <mxCell id="hpwQwDmwqJIpBTNwLYX5-54" value="crm_activity_overview_merge_alias" style="rounded=0;whiteSpace=wrap;html=1;" vertex="1" parent="1">
          <mxGeometry x="-305" y="1630" width="220" height="60" as="geometry" />
        </mxCell>
        <mxCell id="hpwQwDmwqJIpBTNwLYX5-55" value="crm_activity_overview_merge" style="rounded=0;whiteSpace=wrap;html=1;" vertex="1" parent="1">
          <mxGeometry x="-455" y="1450" width="180" height="60" as="geometry" />
        </mxCell>
        <mxCell id="hpwQwDmwqJIpBTNwLYX5-56" value="crm_activity_overview_merge_new" style="rounded=0;whiteSpace=wrap;html=1;" vertex="1" parent="1">
          <mxGeometry x="-155" y="1450" width="200" height="60" as="geometry" />
        </mxCell>
        <mxCell id="hpwQwDmwqJIpBTNwLYX5-57" value="&lt;h1&gt;旧index&lt;/h1&gt;" style="text;html=1;strokeColor=none;fillColor=none;spacing=5;spacingTop=-20;whiteSpace=wrap;overflow=hidden;rounded=0;" vertex="1" parent="1">
          <mxGeometry x="-443" y="1400" width="163" height="30" as="geometry" />
        </mxCell>
        <mxCell id="hpwQwDmwqJIpBTNwLYX5-58" value="&lt;h1&gt;新index&lt;/h1&gt;" style="text;html=1;strokeColor=none;fillColor=none;spacing=5;spacingTop=-20;whiteSpace=wrap;overflow=hidden;rounded=0;" vertex="1" parent="1">
          <mxGeometry x="-138" y="1400" width="163" height="30" as="geometry" />
        </mxCell>
        <mxCell id="hpwQwDmwqJIpBTNwLYX5-59" value="&lt;h1&gt;别名&lt;/h1&gt;" style="text;html=1;strokeColor=none;fillColor=none;spacing=5;spacingTop=-20;whiteSpace=wrap;overflow=hidden;rounded=0;" vertex="1" parent="1">
          <mxGeometry x="-55" y="1635" width="90" height="50" as="geometry" />
        </mxCell>
        <mxCell id="hpwQwDmwqJIpBTNwLYX5-60" style="edgeStyle=orthogonalEdgeStyle;rounded=0;orthogonalLoop=1;jettySize=auto;html=1;entryX=0.5;entryY=1;entryDx=0;entryDy=0;" edge="1" parent="1" source="hpwQwDmwqJIpBTNwLYX5-61" target="hpwQwDmwqJIpBTNwLYX5-54">
          <mxGeometry relative="1" as="geometry" />
        </mxCell>
        <mxCell id="hpwQwDmwqJIpBTNwLYX5-61" value="Actor" style="shape=umlActor;verticalLabelPosition=bottom;verticalAlign=top;html=1;outlineConnect=0;" vertex="1" parent="1">
          <mxGeometry x="-210" y="1780" width="30" height="60" as="geometry" />
        </mxCell>
        <mxCell id="hpwQwDmwqJIpBTNwLYX5-62" style="edgeStyle=orthogonalEdgeStyle;rounded=0;orthogonalLoop=1;jettySize=auto;html=1;exitX=0;exitY=0.5;exitDx=0;exitDy=0;entryX=0.469;entryY=1.012;entryDx=0;entryDy=0;entryPerimeter=0;dashed=1;" edge="1" parent="1" source="hpwQwDmwqJIpBTNwLYX5-54" target="hpwQwDmwqJIpBTNwLYX5-55">
          <mxGeometry relative="1" as="geometry" />
        </mxCell>
      </root>
    </mxGraphModel>
  </diagram>
</mxfile>
